<svg width="16" height="17" viewBox="0 0 16 17" fill="none" xmlns="http://www.w3.org/2000/svg">
<mask id="mask0" style="mask-type:alpha" maskUnits="userSpaceOnUse" x="0" y="0" width="16" height="17">
<path fill-rule="evenodd" clip-rule="evenodd" d="M2.67789 12.394C2.88828 12.6049 2.99363 12.8988 2.96523 13.1954C2.90159 13.8601 2.75502 14.5519 2.56677 15.1945C3.96166 14.8721 4.81358 14.4981 5.20082 14.3019C5.42062 14.1905 5.67381 14.1642 5.91182 14.228C6.56966 14.4044 7.27076 14.5 8 14.5C11.9956 14.5 15 11.6925 15 8.5C15 5.30754 11.9956 2.5 8 2.5C4.0044 2.5 1 5.30754 1 8.5C1 9.96809 1.6173 11.3304 2.67789 12.394ZM2.18489 16.2989C2.17816 16.3003 2.17142 16.3016 2.16466 16.3029C2.07283 16.321 1.97922 16.3388 1.88382 16.3563C1.75 16.3808 1.61264 16.4047 1.47172 16.4277C1.27271 16.4603 1.12037 16.2521 1.19898 16.0664C1.25034 15.9451 1.30097 15.8179 1.3503 15.6861C1.38164 15.6023 1.41245 15.5167 1.44259 15.4294C1.44389 15.4256 1.44518 15.4219 1.44648 15.4181C1.69422 14.6984 1.89596 13.8711 1.96979 13.1001C0.743061 11.8699 0 10.2609 0 8.5C0 4.63401 3.58172 1.5 8 1.5C12.4183 1.5 16 4.63401 16 8.5C16 12.366 12.4183 15.5 8 15.5C7.18324 15.5 6.39508 15.3929 5.65284 15.1939C5.13337 15.4571 4.01434 15.9363 2.18489 16.2989Z" fill="black"/>
</mask>
<g mask="url(#mask0)">
<rect y="0.5" width="16" height="16" fill="#425466"/>
</g>
</svg>
