<svg width="16" height="17" viewBox="0 0 16 17" fill="none" xmlns="http://www.w3.org/2000/svg">
<mask id="mask0" style="mask-type:alpha" maskUnits="userSpaceOnUse" x="0" y="0" width="16" height="17">
<path d="M8 16.5C9.10457 16.5 10 15.6046 10 14.5H6C6 15.6046 6.89543 16.5 8 16.5Z" fill="black"/>
<path fill-rule="evenodd" clip-rule="evenodd" d="M8 2.41825L7.20281 2.57925C5.37552 2.94829 4.00002 4.56463 4.00002 6.5C4.00002 7.12782 3.86566 8.69725 3.54116 10.2422C3.38006 11.0091 3.16454 11.8076 2.87809 12.5H13.1219C12.8355 11.8076 12.62 11.0091 12.4589 10.2422C12.1344 8.69724 12 7.12782 12 6.5C12 4.56462 10.6245 2.94827 8.7972 2.57924L8 2.41825ZM14.2193 12.5C14.4426 12.9474 14.7015 13.301 15 13.5H1C1.29853 13.301 1.55745 12.9474 1.7807 12.5C2.67922 10.6994 3.00002 7.37916 3.00002 6.5C3.00002 4.07934 4.7202 2.06045 7.00484 1.59904C7.00164 1.56646 7 1.53342 7 1.5C7 0.947715 7.44772 0.5 8 0.5C8.55228 0.5 9 0.947715 9 1.5C9 1.53342 8.99836 1.56646 8.99516 1.59903C11.2798 2.06042 13 4.07932 13 6.5C13 7.37916 13.3208 10.6994 14.2193 12.5Z" fill="black"/>
</mask>
<g mask="url(#mask0)">
<rect y="0.5" width="16" height="16" fill="#A0AEC0"/>
</g>
</svg>
