<svg width="16" height="17" viewBox="0 0 16 17" fill="none" xmlns="http://www.w3.org/2000/svg">
<mask id="mask0" style="mask-type:alpha" maskUnits="userSpaceOnUse" x="0" y="0" width="16" height="17">
<path fill-rule="evenodd" clip-rule="evenodd" d="M8.83727 2.1261C8.59121 1.2913 7.40879 1.2913 7.16273 2.1261L7.06888 2.44452C6.73155 3.589 5.42432 4.13046 4.37653 3.55972L4.08501 3.40093C3.32074 2.98463 2.48463 3.82073 2.90093 4.58501L3.05972 4.87653C3.63046 5.92433 3.08899 7.23155 1.94451 7.56888L1.6261 7.66273C0.791301 7.90879 0.7913 9.09121 1.6261 9.33727L1.94452 9.43112C3.089 9.76845 3.63046 11.0757 3.05972 12.1235L2.90093 12.415C2.48463 13.1793 3.32074 14.0154 4.08501 13.5991L4.37653 13.4403C5.42433 12.8695 6.73155 13.411 7.06888 14.5555L7.16273 14.8739C7.40879 15.7087 8.59121 15.7087 8.83727 14.8739L8.93112 14.5555C9.26845 13.411 10.5757 12.8695 11.6235 13.4403L11.915 13.5991C12.6793 14.0154 13.5154 13.1793 13.0991 12.415L12.9403 12.1235C12.3695 11.0757 12.911 9.76845 14.0555 9.43112L14.3739 9.33727C15.2087 9.09121 15.2087 7.90879 14.3739 7.66273L14.0555 7.56888C12.911 7.23155 12.3695 5.92433 12.9403 4.87653L13.0991 4.58501C13.5154 3.82074 12.6793 2.98463 11.915 3.40094L11.6235 3.55972C10.5757 4.13046 9.26845 3.58899 8.93112 2.44451L8.83727 2.1261ZM6.20353 1.84338C6.73147 0.0522088 9.26853 0.0522075 9.79647 1.84338L9.89032 2.16179C10.0475 2.69519 10.6568 2.94755 11.1451 2.68155L11.4366 2.52276C13.0765 1.62953 14.8705 3.42349 13.9772 5.06335L13.8184 5.35487C13.5524 5.84321 13.8048 6.45246 14.3382 6.60968L14.6566 6.70353C16.4478 7.23147 16.4478 9.76853 14.6566 10.2965L14.3382 10.3903C13.8048 10.5475 13.5524 11.1568 13.8184 11.6451L13.9772 11.9366C14.8705 13.5765 13.0765 15.3705 11.4366 14.4772L11.1451 14.3184C10.6568 14.0524 10.0475 14.3048 9.89032 14.8382L9.79647 15.1566C9.26853 16.9478 6.73147 16.9478 6.20353 15.1566L6.10968 14.8382C5.95246 14.3048 5.34321 14.0524 4.85487 14.3184L4.56335 14.4772C2.92349 15.3705 1.12953 13.5765 2.02276 11.9366L2.18155 11.6451C2.44755 11.1568 2.19519 10.5475 1.66179 10.3903L1.34338 10.2965C-0.447791 9.76853 -0.447793 7.23147 1.34338 6.70353L1.66179 6.60968C2.19519 6.45246 2.44755 5.84321 2.18155 5.35487L2.02276 5.06336C1.12953 3.4235 2.9235 1.62953 4.56336 2.52276L4.85487 2.68155C5.34321 2.94755 5.95246 2.69519 6.10968 2.16179L6.20353 1.84338Z" fill="black"/>
<path fill-rule="evenodd" clip-rule="evenodd" d="M8.00004 6.25421C6.75973 6.25421 5.75427 7.25967 5.75427 8.49997C5.75427 9.74027 6.75973 10.7457 8.00004 10.7457C9.24034 10.7457 10.2458 9.74027 10.2458 8.49997C10.2458 7.25967 9.24034 6.25421 8.00004 6.25421ZM4.75427 8.49997C4.75427 6.70739 6.20745 5.25421 8.00004 5.25421C9.79262 5.25421 11.2458 6.70739 11.2458 8.49997C11.2458 10.2926 9.79262 11.7457 8.00004 11.7457C6.20745 11.7457 4.75427 10.2926 4.75427 8.49997Z" fill="black"/>
</mask>
<g mask="url(#mask0)">
<rect y="0.5" width="16" height="16" fill="#4C6FFF"/>
</g>
</svg>
