<svg width="16" height="17" viewBox="0 0 16 17" fill="none" xmlns="http://www.w3.org/2000/svg">
<mask id="mask0" style="mask-type:alpha" maskUnits="userSpaceOnUse" x="0" y="0" width="16" height="17">
<path fill-rule="evenodd" clip-rule="evenodd" d="M4 11.5H2V14.5H4V11.5ZM9 7.5H7V14.5H9V7.5ZM14 2.5L12 2.5V14.5H14V2.5ZM12 1.5C11.4477 1.5 11 1.94772 11 2.5V14.5C11 15.0523 11.4477 15.5 12 15.5H14C14.5523 15.5 15 15.0523 15 14.5V2.5C15 1.94772 14.5523 1.5 14 1.5H12ZM6 7.5C6 6.94772 6.44772 6.5 7 6.5H9C9.55228 6.5 10 6.94772 10 7.5V14.5C10 15.0523 9.55228 15.5 9 15.5H7C6.44772 15.5 6 15.0523 6 14.5V7.5ZM1 11.5C1 10.9477 1.44772 10.5 2 10.5H4C4.55228 10.5 5 10.9477 5 11.5V14.5C5 15.0523 4.55228 15.5 4 15.5H2C1.44772 15.5 1 15.0523 1 14.5V11.5Z" fill="black"/>
</mask>
<g mask="url(#mask0)">
<rect y="0.5" width="16" height="16" fill="#425466"/>
</g>
</svg>
