<svg width="12" height="12" viewBox="0 0 12 12" fill="none" xmlns="http://www.w3.org/2000/svg">
<mask id="mask0" style="mask-type:alpha" maskUnits="userSpaceOnUse" x="0" y="0" width="13" height="12">
<path d="M6.00024 12C6.82867 12 7.50024 11.3284 7.50024 10.5H4.50024C4.50024 11.3284 5.17182 12 6.00024 12Z" fill="black"/>
<path d="M6.74661 0.824275C6.74901 0.799842 6.75024 0.775065 6.75024 0.75C6.75024 0.335786 6.41446 0 6.00024 0C5.58603 0 5.25024 0.335786 5.25024 0.75C5.25024 0.775067 5.25147 0.799846 5.25388 0.824282C3.54039 1.17034 2.25026 2.6845 2.25026 4.5C2.25026 5.3232 1.87524 9 0.750244 9.75H11.2502C10.1252 9 9.75026 5.3232 9.75026 4.5C9.75026 2.68449 8.46011 1.17032 6.74661 0.824275Z" fill="black"/>
</mask>
<g mask="url(#mask0)">
<rect x="0.000244141" width="12" height="12" fill="#F16063"/>
</g>
</svg>
