<svg width="18" height="19" viewBox="0 0 18 19" fill="none" xmlns="http://www.w3.org/2000/svg">
<path fill-rule="evenodd" clip-rule="evenodd" d="M3.9375 0.5C4.24816 0.5 4.5 0.75184 4.5 1.0625V1.625H13.5V1.0625C13.5 0.75184 13.7518 0.5 14.0625 0.5C14.3732 0.5 14.625 0.75184 14.625 1.0625V1.625H15.75C16.9926 1.625 18 2.63236 18 3.875V16.25C18 17.4926 16.9926 18.5 15.75 18.5H2.25C1.00736 18.5 0 17.4926 0 16.25V3.875C0 2.63236 1.00736 1.625 2.25 1.625H3.375V1.0625C3.375 0.75184 3.62684 0.5 3.9375 0.5ZM1.125 5V16.25C1.125 16.8713 1.62868 17.375 2.25 17.375H15.75C16.3713 17.375 16.875 16.8713 16.875 16.25V5H1.125Z" fill="white"/>
<path d="M2.88098 13.2485L3.48743 11.4468H5.71985L6.32629 13.2485H7.13489L4.99915 7.25H4.21692L2.08118 13.2485H2.88098ZM4.61682 8.15527L5.51331 10.8271H3.69397L4.59485 8.15527H4.61682Z" fill="white"/>
<path d="M11.0812 8.62988H10.3209V11.4907C10.3209 12.2246 9.8551 12.6421 9.19153 12.6421C8.58508 12.6421 8.0885 12.3652 8.0885 11.5039V8.62988H7.32825V11.7192C7.32825 12.7783 8.0094 13.3232 8.96301 13.3232C9.70129 13.3232 10.1364 13.0068 10.299 12.6421H10.3297V13.2485H11.0812V8.62988Z" fill="white"/>
<path d="M13.6212 14.3076C12.9884 14.3076 12.5973 13.9648 12.5138 13.5913H11.7404C11.8458 14.3604 12.4435 14.9404 13.6168 14.9404C14.6627 14.9404 15.5812 14.3472 15.5812 13.165V8.62988H14.8517V9.28027H14.8297C14.6144 8.88916 14.1134 8.55957 13.485 8.55957C12.3995 8.55957 11.6393 9.32422 11.6393 10.6821V11.0645C11.6393 12.4487 12.4083 13.2046 13.485 13.2046C14.1134 13.2046 14.6188 12.875 14.8033 12.4751H14.8253V13.1562C14.8253 13.8813 14.3507 14.3076 13.6212 14.3076ZM13.63 9.20996C14.3595 9.20996 14.8253 9.80322 14.8253 10.7393V11.0249C14.8253 11.9785 14.3859 12.5586 13.63 12.5586C12.8522 12.5586 12.3951 11.9829 12.3951 11.0249V10.7393C12.3951 9.76367 12.8522 9.20996 13.63 9.20996Z" fill="white"/>
</svg>
