<svg width="24" height="24" viewBox="0 0 24 24" fill="none" xmlns="http://www.w3.org/2000/svg">
<path fill-rule="evenodd" clip-rule="evenodd" d="M0 6C0 4.34315 1.34315 3 3 3H21C22.6569 3 24 4.34315 24 6V18C24 19.6569 22.6569 21 21 21H3C1.34315 21 0 19.6569 0 18V6ZM3 4.5C2.17157 4.5 1.5 5.17157 1.5 6V7.5H22.5V6C22.5 5.17157 21.8284 4.5 21 4.5H3ZM22.5 10.5H1.5V18C1.5 18.8284 2.17157 19.5 3 19.5H21C21.8284 19.5 22.5 18.8284 22.5 18V10.5Z" fill="black"/>
<path d="M3 15C3 14.1716 3.67157 13.5 4.5 13.5H6C6.82843 13.5 7.5 14.1716 7.5 15V16.5C7.5 17.3284 6.82843 18 6 18H4.5C3.67157 18 3 17.3284 3 16.5V15Z" fill="black"/>
</svg>
