<svg width="18" height="19" viewBox="0 0 18 19" fill="none" xmlns="http://www.w3.org/2000/svg">
<mask id="mask0" style="mask-type:alpha" maskUnits="userSpaceOnUse" x="0" y="0" width="18" height="19">
<path fill-rule="evenodd" clip-rule="evenodd" d="M15.75 3.875H2.25C1.62868 3.875 1.125 4.37868 1.125 5V14C1.125 14.6213 1.62868 15.125 2.25 15.125H15.75C16.3713 15.125 16.875 14.6213 16.875 14V5C16.875 4.37868 16.3713 3.875 15.75 3.875ZM2.25 2.75C1.00736 2.75 0 3.75736 0 5V14C0 15.2426 1.00736 16.25 2.25 16.25H15.75C16.9926 16.25 18 15.2426 18 14V5C18 3.75736 16.9926 2.75 15.75 2.75H2.25Z" fill="black"/>
<path d="M2.25 6.6875C2.25 6.37684 2.50184 6.125 2.8125 6.125H5.0625C5.37316 6.125 5.625 6.37684 5.625 6.6875V7.8125C5.625 8.12316 5.37316 8.375 5.0625 8.375H2.8125C2.50184 8.375 2.25 8.12316 2.25 7.8125V6.6875Z" fill="black"/>
<path fill-rule="evenodd" clip-rule="evenodd" d="M2.25 10.0625C2.25 9.75184 2.50184 9.5 2.8125 9.5H8.4375C8.74816 9.5 9 9.75184 9 10.0625C9 10.3732 8.74816 10.625 8.4375 10.625H2.8125C2.50184 10.625 2.25 10.3732 2.25 10.0625ZM2.25 12.3125C2.25 12.0018 2.50184 11.75 2.8125 11.75H3.9375C4.24816 11.75 4.5 12.0018 4.5 12.3125C4.5 12.6232 4.24816 12.875 3.9375 12.875H2.8125C2.50184 12.875 2.25 12.6232 2.25 12.3125ZM5.625 12.3125C5.625 12.0018 5.87684 11.75 6.1875 11.75H7.3125C7.62316 11.75 7.875 12.0018 7.875 12.3125C7.875 12.6232 7.62316 12.875 7.3125 12.875H6.1875C5.87684 12.875 5.625 12.6232 5.625 12.3125ZM9 12.3125C9 12.0018 9.25184 11.75 9.5625 11.75H10.6875C10.9982 11.75 11.25 12.0018 11.25 12.3125C11.25 12.6232 10.9982 12.875 10.6875 12.875H9.5625C9.25184 12.875 9 12.6232 9 12.3125ZM12.375 12.3125C12.375 12.0018 12.6268 11.75 12.9375 11.75H14.0625C14.3732 11.75 14.625 12.0018 14.625 12.3125C14.625 12.6232 14.3732 12.875 14.0625 12.875H12.9375C12.6268 12.875 12.375 12.6232 12.375 12.3125Z" fill="black"/>
</mask>
<g mask="url(#mask0)">
<rect y="0.5" width="18" height="18" fill="white"/>
</g>
</svg>
