<svg width="64" height="64" viewBox="0 0 64 64" fill="none" xmlns="http://www.w3.org/2000/svg">
<mask id="mask0" style="mask-type:alpha" maskUnits="userSpaceOnUse" x="0" y="0" width="64" height="64">
<path fill-rule="evenodd" clip-rule="evenodd" d="M33.4652 20.8457C33.0346 19.3848 30.9654 19.3848 30.5348 20.8457L30.3705 21.4029C29.7802 23.4057 27.4926 24.3533 25.6589 23.3545L25.1488 23.0766C23.8113 22.3481 22.3481 23.8113 23.0766 25.1488L23.3545 25.6589C24.3533 27.4926 23.4057 29.7802 21.4029 30.3705L20.8457 30.5348C19.3848 30.9654 19.3848 33.0346 20.8457 33.4652L21.4029 33.6295C23.4057 34.2198 24.3533 36.5074 23.3545 38.3411L23.0766 38.8512C22.3481 40.1887 23.8113 41.6519 25.1488 40.9234L25.6589 40.6455C27.4926 39.6467 29.7802 40.5943 30.3705 42.5971L30.5348 43.1543C30.9654 44.6152 33.0346 44.6152 33.4652 43.1543L33.6295 42.5971C34.2198 40.5943 36.5074 39.6467 38.3411 40.6455L38.8512 40.9234C40.1887 41.6519 41.6519 40.1887 40.9234 38.8512L40.6455 38.3411C39.6467 36.5074 40.5943 34.2198 42.5971 33.6295L43.1543 33.4652C44.6152 33.0346 44.6152 30.9654 43.1543 30.5348L42.5971 30.3705C40.5943 29.7802 39.6467 27.4926 40.6455 25.6589L40.9234 25.1488C41.6519 23.8113 40.1887 22.3481 38.8512 23.0766L38.3411 23.3545C36.5074 24.3533 34.2198 23.4057 33.6295 21.4029L33.4652 20.8457ZM28.8562 20.3509C29.7801 17.2164 34.2199 17.2164 35.1438 20.3509L35.3081 20.9081C35.5832 21.8416 36.6494 22.2832 37.504 21.8177L38.0141 21.5398C40.8839 19.9767 44.0233 23.1161 42.4602 25.9859L42.1823 26.496C41.7168 27.3506 42.1584 28.4168 43.0919 28.6919L43.6491 28.8562C46.7836 29.7801 46.7836 34.2199 43.6491 35.1438L43.0919 35.3081C42.1584 35.5832 41.7168 36.6494 42.1823 37.504L42.4602 38.0141C44.0233 40.8839 40.8839 44.0233 38.0141 42.4602L37.504 42.1823C36.6494 41.7168 35.5832 42.1584 35.3081 43.0919L35.1438 43.6491C34.2199 46.7836 29.7801 46.7836 28.8562 43.6491L28.6919 43.0919C28.4168 42.1584 27.3506 41.7168 26.496 42.1823L25.9859 42.4602C23.1161 44.0233 19.9767 40.8839 21.5398 38.0141L21.8177 37.504C22.2832 36.6494 21.8416 35.5832 20.9081 35.3081L20.3509 35.1438C17.2164 34.2199 17.2164 29.7801 20.3509 28.8562L20.9081 28.6919C21.8416 28.4168 22.2832 27.3506 21.8177 26.496L21.5398 25.9859C19.9767 23.1161 23.1161 19.9767 25.9859 21.5398L26.496 21.8177C27.3506 22.2832 28.4168 21.8416 28.6919 20.9081L28.8562 20.3509Z" fill="black"/>
<path fill-rule="evenodd" clip-rule="evenodd" d="M32 28.0699C29.8295 28.0699 28.0699 29.8294 28.0699 32C28.0699 34.1705 29.8295 35.9301 32 35.9301C34.1706 35.9301 35.9301 34.1705 35.9301 32C35.9301 29.8294 34.1706 28.0699 32 28.0699ZM26.3199 32C26.3199 28.8629 28.863 26.3199 32 26.3199C35.1371 26.3199 37.6801 28.8629 37.6801 32C37.6801 35.137 35.1371 37.6801 32 37.6801C28.863 37.6801 26.3199 35.137 26.3199 32Z" fill="black"/>
</mask>
<g mask="url(#mask0)">
<rect width="64" height="64" fill="white"/>
</g>
</svg>
