<svg width="18" height="19" viewBox="0 0 18 19" fill="none" xmlns="http://www.w3.org/2000/svg">
<path fill-rule="evenodd" clip-rule="evenodd" d="M15.1875 1.625H2.8125C2.19118 1.625 1.6875 2.12868 1.6875 2.75V16.25C1.6875 16.8713 2.19118 17.375 2.8125 17.375H15.1875C15.8088 17.375 16.3125 16.8713 16.3125 16.25V2.75C16.3125 2.12868 15.8088 1.625 15.1875 1.625ZM2.8125 0.5C1.56986 0.5 0.5625 1.50736 0.5625 2.75V16.25C0.5625 17.4926 1.56986 18.5 2.8125 18.5H15.1875C16.4301 18.5 17.4375 17.4926 17.4375 16.25V2.75C17.4375 1.50736 16.4301 0.5 15.1875 0.5H2.8125Z" fill="white"/>
<path d="M7.3125 3.875C7.3125 3.25368 7.81618 2.75 8.4375 2.75H9.5625C10.1838 2.75 10.6875 3.25368 10.6875 3.875V7.25C10.6875 7.87132 10.1838 8.375 9.5625 8.375H8.4375C7.81618 8.375 7.3125 7.87132 7.3125 7.25V3.875Z" fill="white"/>
<path d="M2.8125 3.875C2.8125 3.25368 3.31618 2.75 3.9375 2.75H5.0625C5.68382 2.75 6.1875 3.25368 6.1875 3.875V11.75C6.1875 12.3713 5.68382 12.875 5.0625 12.875H3.9375C3.31618 12.875 2.8125 12.3713 2.8125 11.75V3.875Z" fill="white"/>
<path d="M11.8125 3.875C11.8125 3.25368 12.3162 2.75 12.9375 2.75H14.0625C14.6838 2.75 15.1875 3.25368 15.1875 3.875V15.125C15.1875 15.7463 14.6838 16.25 14.0625 16.25H12.9375C12.3162 16.25 11.8125 15.7463 11.8125 15.125V3.875Z" fill="white"/>
</svg>
