<svg width="16" height="17" viewBox="0 0 16 17" fill="none" xmlns="http://www.w3.org/2000/svg">
<mask id="mask0" style="mask-type:alpha" maskUnits="userSpaceOnUse" x="0" y="0" width="16" height="17">
<path fill-rule="evenodd" clip-rule="evenodd" d="M10.0674 1.3708C8.93365 0.209734 7.06635 0.209734 5.93262 1.3708L5.31077 2.00763L4.42075 1.99703C2.79809 1.97771 1.47771 3.29809 1.49703 4.92075L1.50763 5.81077L0.870798 6.43262C-0.290266 7.56635 -0.290266 9.43365 0.870798 10.5674L1.50763 11.1892L1.49703 12.0792C1.47771 13.7019 2.79809 15.0223 4.42075 15.003L5.31077 14.9924L5.93262 15.6292C7.06635 16.7903 8.93365 16.7903 10.0674 15.6292L10.6892 14.9924L11.5792 15.003C13.2019 15.0223 14.5223 13.7019 14.503 12.0792L14.4924 11.1892L15.1292 10.5674C16.2903 9.43365 16.2903 7.56635 15.1292 6.43262L14.4924 5.81077L14.503 4.92075C14.5223 3.29809 13.2019 1.97771 11.5792 1.99703L10.6892 2.00763L10.0674 1.3708ZM10.3536 7.35355C10.5488 7.15829 10.5488 6.84171 10.3536 6.64645C10.1583 6.45118 9.84171 6.45118 9.64645 6.64645L7 9.29289L5.85355 8.14645C5.65829 7.95118 5.34171 7.95118 5.14645 8.14645C4.95118 8.34171 4.95118 8.65829 5.14645 8.85355L6.64645 10.3536C6.74021 10.4473 6.86739 10.5 7 10.5C7.13261 10.5 7.25979 10.4473 7.35355 10.3536L10.3536 7.35355Z" fill="black"/>
</mask>
<g mask="url(#mask0)">
<rect y="0.5" width="16" height="16" fill="#66CB9F"/>
</g>
</svg>
