<svg width="18" height="18" viewBox="0 0 18 18" fill="none" xmlns="http://www.w3.org/2000/svg">
<path fill-rule="evenodd" clip-rule="evenodd" d="M12.375 1.125H5.625C5.00368 1.125 4.5 1.62868 4.5 2.25V15.75C4.5 16.3713 5.00368 16.875 5.625 16.875H12.375C12.9963 16.875 13.5 16.3713 13.5 15.75V2.25C13.5 1.62868 12.9963 1.125 12.375 1.125ZM5.625 0C4.38236 0 3.375 1.00736 3.375 2.25V15.75C3.375 16.9926 4.38236 18 5.625 18H12.375C13.6176 18 14.625 16.9926 14.625 15.75V2.25C14.625 1.00736 13.6176 0 12.375 0H5.625Z" fill="black"/>
<path fill-rule="evenodd" clip-rule="evenodd" d="M9 15.75C9.62132 15.75 10.125 15.2463 10.125 14.625C10.125 14.0037 9.62132 13.5 9 13.5C8.37868 13.5 7.875 14.0037 7.875 14.625C7.875 15.2463 8.37868 15.75 9 15.75Z" fill="black"/>
</svg>
